<svg xmlns="http://www.w3.org/2000/svg" viewBox="0 0 64 64" role="img" aria-label="SW monogram"><rect width="64" height="64" rx="18" fill="#0e0e10"/><path d="M18 42c3.2 3.1 8.2 4.9 13.5 4.9 6.9 0 11.5-3.2 11.5-8.1 0-4.5-3.1-6.8-9.6-8.1l-4.6-.9c-3.9-.8-5.6-1.7-5.6-3.7 0-2.2 2.3-3.8 6-3.8 4.1 0 7.7 1.4 10.4 3.6l3.4-5.2c-3.4-2.8-8.1-4.4-13.5-4.4-7.3 0-12.1 3.8-12.1 9.6 0 4.7 3.1 7.3 9.6 8.5l4.7.9c3.7.7 5.3 1.7 5.3 3.6 0 1.9-2.1 3.2-5.7 3.2-4.2 0-8.1-1.6-11-4.2L18 42z" fill="#f2eee8"/><path d="M44 18l-5.2 27h-5.6l-4.4-16.6L24.3 45h-5.5l-5.3-27h5.8l2.8 17.5L26.7 18h4.3l4.7 17.5L38.5 18H44z" fill="#7a1f2a" opacity=".9"/></svg>
